<svg xmlns="http://www.w3.org/2000/svg" viewBox="0 0 133.4 34.4" style="enable-background:new 0 0 133.4 34.4;" xml:space="preserve">
<style type="text/css">
    .st0 {
        fill: #FFFFFF;
    }

    .st1 {
        fill: #71BD54;
    }
</style>
    <path class="st0" d="M42.7,12.7c-0.8-0.8-1.8-1.5-2.8-1.9c-2.4-0.9-5.1-0.9-7.4,0.1c-1.1,0.5-2.2,1.1-3,2c-0.9,0.9-1.6,1.9-2,3.1
	c-0.5,1.3-0.7,2.6-0.7,3.9c0,1.4,0.2,2.7,0.8,4c0.5,1.1,1.2,2.2,2,3.1c0.9,0.9,1.9,1.5,3.1,2c2.7,1,5.7,0.9,8.3-0.2
	c1.4-0.7,2.6-1.6,3.5-2.9l0.2-0.2l-3-2.4l-0.2,0.3c-0.5,0.7-1.2,1.4-1.9,1.8c-1.5,0.9-3.4,1-5,0.4c-0.6-0.2-1.2-0.6-1.7-1.1
	c-0.5-0.5-0.9-1-1.2-1.6c-0.3-0.5-0.4-1.1-0.5-1.7H45l0-0.3c0-0.2,0-0.4,0-0.6v-0.6c0-1.3-0.2-2.7-0.6-4
	C44.1,14.6,43.5,13.6,42.7,12.7z M40.9,17.9H31c0.1-0.5,0.2-1,0.5-1.5c0.3-0.6,0.7-1.1,1.1-1.5c0.5-0.4,1-0.8,1.6-1
	c0.6-0.3,1.3-0.4,2-0.4c0.7,0,1.4,0.1,2,0.4c0.5,0.2,1,0.6,1.4,1c0.4,0.4,0.7,0.9,0.9,1.5C40.7,16.9,40.8,17.4,40.9,17.9L40.9,17.9z
	"/>
    <path class="st0" d="M94.3,12.8c-0.8-0.8-1.7-1.5-2.8-1.9c-2.4-0.9-5.1-0.9-7.4,0.1c-1.1,0.5-2.2,1.1-3.1,2c-0.9,0.9-1.6,1.9-2,3.1
	c-0.5,1.3-0.7,2.6-0.7,3.9c0,1.4,0.2,2.7,0.8,4c0.5,1.1,1.2,2.2,2,3.1c0.9,0.9,1.9,1.5,3.1,2c2.7,1,5.7,0.9,8.3-0.2
	c1.4-0.7,2.6-1.6,3.5-2.9l0.2-0.2l-3-2.4l-0.2,0.3c-0.5,0.7-1.2,1.4-2,1.8C90,25.8,89,26.1,88,26c-1.4,0-2.8-0.5-3.8-1.5
	c-0.5-0.5-0.9-1-1.2-1.6c-0.2-0.5-0.4-1.1-0.5-1.7h14.1l0-0.3c0-0.2,0-0.4,0-0.6v-0.6c0-1.3-0.2-2.7-0.6-4
	C95.7,14.7,95.1,13.7,94.3,12.8z M92.5,18h-9.9c0.1-0.5,0.2-1,0.5-1.5c0.3-0.6,0.7-1.1,1.1-1.5c0.5-0.4,1-0.8,1.6-1
	c0.6-0.3,1.3-0.4,2-0.4c0.7,0,1.4,0.1,2,0.4c0.5,0.2,1,0.6,1.4,1c0.4,0.4,0.7,0.9,0.9,1.5C92.3,17,92.4,17.5,92.5,18L92.5,18z"/>
    <polygon class="st0" points="115.6,10.6 110,10.6 102.8,18 102.8,0 98.7,0 98.7,29 102.8,29 102.8,20.2 110.5,29 116.3,29 106.9,19
	"/>
    <path class="st0" d="M59.4,10.6v9.8c0,1.7-0.4,3.1-1.2,4.1c-0.8,1-2,1.5-3.2,1.5c-0.7,0-1.3-0.1-1.9-0.4c-0.5-0.3-0.9-0.6-1.1-1.1
	c-0.3-0.5-0.5-1.1-0.6-1.6c-0.1-0.7-0.2-1.4-0.2-2V10.6h-4.2v11.3c0,1,0.1,2,0.4,2.9c0.3,0.9,0.7,1.7,1.3,2.4
	c0.6,0.7,1.3,1.3,2.2,1.7c1,0.4,2,0.6,3.1,0.6c1.3,0,2.6-0.3,3.7-1c0.7-0.4,1.4-1,1.9-1.7V29h4V10.6H59.4z"/>
    <path class="st0" d="M78.3,14.2v-4L78,10.2c-0.4-0.1-0.9-0.1-1.3-0.1c-1.2,0-2.4,0.3-3.4,1c-0.7,0.5-1.3,1.1-1.8,1.8v-2.3h-4V29h4.2
	v-9.7c0-0.7,0.1-1.4,0.3-2.1c0.2-0.6,0.5-1.2,0.9-1.7c0.4-0.5,0.9-0.9,1.5-1.2c0.6-0.3,1.4-0.5,2.1-0.4c0.5,0,1,0.1,1.5,0.2
	L78.3,14.2z"/>
    <path class="st0" d="M132.9,14.6c-0.3-0.9-0.8-1.7-1.4-2.3c-0.7-0.7-1.5-1.2-2.4-1.5c-1.1-0.4-2.3-0.6-3.4-0.6
	c-1.4,0-2.8,0.2-4.2,0.7c-1.2,0.4-2.3,1.1-3.3,2l-0.2,0.2l2.3,2.7l0.2-0.2c0.6-0.6,1.3-1.1,2.1-1.4c0.9-0.4,1.8-0.6,2.7-0.6
	c1.1-0.1,2.1,0.3,3,0.9c0.7,0.6,1.1,1.5,1.1,2.7v0.2c-1.4,0-2.8,0.1-4.2,0.2c-1.4,0.1-2.8,0.4-4.1,0.8c-1.1,0.4-2.2,1-3,1.9
	c-0.8,0.8-1.2,2-1.2,3.4c0,1,0.2,1.9,0.7,2.8c0.4,0.7,1,1.3,1.7,1.8c0.7,0.5,1.4,0.8,2.2,1c0.7,0.2,1.5,0.3,2.3,0.3
	c1.3,0,2.5-0.3,3.7-0.8c0.8-0.4,1.5-1,2.1-1.7V29h3.9V17.4C133.4,16.4,133.2,15.5,132.9,14.6z M129.4,20.5v0.6
	c0,1.3-0.4,2.6-1.3,3.5c-0.8,0.9-2,1.4-3.6,1.4c-0.4,0-0.8,0-1.3-0.1c-0.4-0.1-0.7-0.2-1.1-0.4c-0.3-0.2-0.6-0.4-0.8-0.8
	c-0.2-0.4-0.3-0.7-0.3-1.2c0-0.6,0.2-1.2,0.6-1.6c0.5-0.4,1.1-0.8,1.8-0.9c0.8-0.2,1.7-0.4,2.5-0.4c0.9-0.1,1.8-0.1,2.7-0.1
	L129.4,20.5z"/>
    <path class="st1" d="M20.1,34.4h-18C1,34.4,0,33.5,0,32.3c0-0.6,0.2-1.1,0.6-1.5L12,19.4L1,8.4c-0.8-0.8-0.8-2.2,0-3
	C1.3,5,1.9,4.7,2.5,4.7h17.6c1.2,0,2.1,1,2,2.2c0,1.1-0.9,2-2,2H7.6l8.9,8.9c0.8,0.8,0.8,2.2,0,3l-9.2,9.2h12.8c1.2,0,2.1,1,2,2.2
	C22.1,33.5,21.2,34.3,20.1,34.4z"/>
</svg>